<?xml version="1.0" standalone="no"?>
<!DOCTYPE svg PUBLIC "-//W3C//DTD SVG 20010904//EN"
 "http://www.w3.org/TR/2001/REC-SVG-20010904/DTD/svg10.dtd">
<svg version="1.0" xmlns="http://www.w3.org/2000/svg"
 width="512.000000pt" height="512.000000pt" viewBox="0 0 512.000000 512.000000"
 preserveAspectRatio="xMidYMid meet">
<metadata>
Created by potrace 1.11, written by Peter Selinger 2001-2013
</metadata>
<g transform="translate(0.000000,512.000000) scale(0.100000,-0.100000)"
fill="#000000" stroke="none">
<path d="M2520 4953 c-123 -45 -879 -411 -1260 -609 -301 -157 -618 -326 -685
-366 -16 -9 -47 -27 -69 -38 -110 -61 -173 -109 -179 -137 -6 -28 0 -608 7
-713 2 -30 7 -120 11 -200 4 -80 8 -170 10 -200 2 -30 6 -107 10 -170 3 -63 8
-137 10 -165 2 -27 7 -104 10 -170 4 -66 8 -131 10 -145 2 -14 7 -65 10 -115
3 -49 8 -106 10 -125 2 -19 7 -72 10 -117 4 -45 8 -90 10 -100 2 -10 6 -47 10
-83 4 -36 13 -75 21 -87 13 -21 271 -195 589 -398 94 -59 193 -122 220 -140
60 -39 522 -324 550 -339 11 -6 76 -45 145 -86 259 -154 511 -280 569 -286 66
-6 208 70 787 421 170 103 768 486 809 518 6 4 89 60 185 124 96 64 212 142
256 174 76 54 83 63 93 106 17 75 34 198 45 333 3 30 8 80 11 110 6 69 12 142
20 256 3 49 8 112 10 139 24 308 39 708 40 1050 0 421 -1 427 -84 477 -20 12
-38 24 -41 27 -3 4 -16 12 -30 20 -14 8 -77 44 -140 81 -112 65 -208 117 -415
227 -137 73 -943 476 -1085 542 -253 119 -426 192 -452 190 -7 0 -20 -3 -28
-6z"/>
</g>
</svg>
